<svg id="Capa_1" enable-background="new 0 0 512 512" height="512" viewBox="0 0 512 512" width="512" xmlns="http://www.w3.org/2000/svg"><g><g><g><g><g><g><g><path d="m476.143 386.742c-44.641 75.004-126.523 125.258-220.143 125.258-139.377 0-252.739-111.383-255.931-249.993l12.239-84.654c33.186-102.907 129.745-177.353 243.692-177.353 130.267 0 237.809 97.299 253.917 223.187z" fill="#7982ed"/></g></g></g></g></g></g><path d="m496.218 326.97-240.218-240.218-4.102 167.138-251.829 8.11 126.729 126.729-17.46 6.398 114.925 114.925c10.399 1.286 20.991 1.948 31.737 1.948 93.622 0 175.506-50.257 220.146-125.264z" fill="#4d56b2"/><g><path d="m256 177.353h-243.692c-7.991 24.779-12.308 51.209-12.308 78.647 0 2.006.023 4.006.069 6h255.931z" fill="#fff"/></g><g><path d="m511.733 267.805c.177-3.913.267-7.848.267-11.805 0-11.116-.709-22.067-2.083-32.81l-210.827-45.837 17.508 55.262 184.102 75.646z" fill="#e06a24"/></g><g><path d="m503.081 309.239-186.483-76.624 8.984 42.801 150.561 111.325c9.859-16.565 17.901-34.337 23.852-53.041z" fill="#95e0db"/></g><g><path d="m511.733 267.801-208.63-62.756 9.396 35.895 187.497 92.761c6.658-20.928 10.699-43.023 11.737-65.9z" fill="#f1cc30"/></g><g><path d="m109.338 395.127 146.662-308.375 43.089 90.601 2.927 64.507 54.639 56.532 46.007 96.735z" fill="#c7eefe"/></g><g><path d="m256 86.752v308.375h146.662l-46.007-96.736-42.91-60.519-14.656-60.519z" fill="#9fdafe"/></g><g><path d="m212.911 177.353h86.178l57.566 121.039-184.002-36.392z" fill="#b1e7fe"/></g><g><path d="m299.089 177.353h-43.089v101.131l100.655 19.908z" fill="#76cefb"/></g></g></svg>